<svg width="23" height="19" viewBox="0 0 23 19" fill="none" xmlns="http://www.w3.org/2000/svg">
<path d="M2.64694 18.8956C2.20698 18.8956 1.82201 18.7269 1.49203 18.3894C1.16206 18.052 0.99707 17.6582 0.99707 17.2083V2.5844C0.99707 2.13444 1.16206 1.74072 1.49203 1.40324C1.82201 1.06577 2.20698 0.897034 2.64694 0.897034H21.3455C21.7855 0.897034 22.1704 1.06577 22.5004 1.40324C22.8304 1.74072 22.9954 2.13444 22.9954 2.5844V17.2083C22.9954 17.6582 22.8304 18.052 22.5004 18.3894C22.1704 18.7269 21.7855 18.8956 21.3455 18.8956H2.64694ZM11.9962 10.4026L2.64694 4.13116V17.2083H21.3455V4.13116L11.9962 10.4026ZM11.9962 8.71518L21.2355 2.5844H2.78443L11.9962 8.71518ZM2.64694 4.13116V2.5844V17.2083V4.13116Z" fill="#8D8D8D"/>
</svg>
