<svg width="24" height="22" viewBox="0 0 24 22" fill="none" xmlns="http://www.w3.org/2000/svg">
<path d="M21.2451 21.8084L16.8545 17.4829C16.2447 17.7275 15.5565 17.9154 14.7899 18.0465C14.0233 18.1776 13.248 18.2431 12.464 18.2431C9.92022 18.2431 7.61168 17.5309 5.53836 16.1066C3.46503 14.6822 1.94053 12.7729 0.964844 10.3785C1.3133 9.46976 1.79679 8.58281 2.4153 7.71771C3.03381 6.8526 3.78735 6.02682 4.67592 5.24037L1.38299 1.93725L2.48064 0.809998L22.2643 20.6549L21.2451 21.8084ZM12.464 14.8351C12.7079 14.8351 12.9692 14.8133 13.248 14.7696C13.5268 14.7259 13.762 14.6604 13.9536 14.573L8.28246 8.88428C8.19535 9.094 8.13001 9.32994 8.08645 9.59209C8.0429 9.85424 8.02112 10.1164 8.02112 10.3785C8.02112 11.6369 8.45669 12.6942 9.32784 13.5506C10.199 14.407 11.2444 14.8351 12.464 14.8351ZM19.7293 15.8837L16.358 12.502C16.5322 12.2224 16.6672 11.8947 16.7631 11.5189C16.8589 11.1432 16.9068 10.763 16.9068 10.3785C16.9068 9.1377 16.4756 8.08472 15.6131 7.21962C14.7507 6.35451 13.701 5.92196 12.464 5.92196C12.0807 5.92196 11.7061 5.96566 11.3402 6.05304C10.9743 6.14042 10.6433 6.28024 10.3471 6.47248L7.4723 3.56259C8.0821 3.28297 8.86177 3.03829 9.81132 2.82857C10.7609 2.61885 11.6886 2.51399 12.5946 2.51399C15.0861 2.51399 17.3642 3.22617 19.4288 4.65053C21.4934 6.07489 23.0048 7.98423 23.9631 10.3785C23.5101 11.4971 22.9264 12.5195 22.2121 13.4457C21.4977 14.372 20.6701 15.1847 19.7293 15.8837ZM15.2081 11.3485L11.497 7.62595C12.0023 7.43371 12.5249 7.39438 13.065 7.50798C13.6052 7.62158 14.0756 7.87063 14.4763 8.25512C14.877 8.65708 15.1558 9.10711 15.3126 9.6052C15.4694 10.1033 15.4346 10.6844 15.2081 11.3485Z" fill="black"/>
</svg>
