
<svg width="128" height="39" viewBox="0 0 128 39" fill="none" xmlns="http://www.w3.org/2000/svg">
<path d="M59.0482 27.3541C58.6564 27.3541 58.3571 27.3028 58.1504 27.2003C57.9436 27.0978 57.8025 26.857 57.727 26.478C57.6509 26.0989 57.6128 25.4848 57.6128 24.6358V20.0482C57.6128 19.9013 57.6128 19.7581 57.6063 19.6141C57.5679 18.1713 57.3309 16.9934 56.8951 16.0806C56.4161 15.0774 55.7352 14.3499 54.8526 13.898C53.97 13.4461 52.9208 13.2204 51.7052 13.2211C50.6967 13.2207 49.6917 13.3463 48.7119 13.5953C47.6959 13.8561 46.71 14.2309 45.7716 14.7132L46.13 18.1451C46.8829 17.7517 47.6661 17.4247 48.4715 17.1675C49.1629 16.9584 49.8794 16.8529 50.5994 16.8542C51.643 16.8542 52.3823 17.075 52.8175 17.5166C53.1703 17.8744 53.3931 18.4062 53.4897 19.1112C54.354 19.0551 56.2898 19.822 56.2898 19.822C55.3805 19.6584 54.457 19.5968 53.5351 19.6382C53.04 19.6563 52.4786 19.7088 51.851 19.7959H51.8278C51.6978 19.8133 51.5622 19.8326 51.4258 19.8548C50.6023 19.9845 49.7897 20.1801 48.9951 20.4399C48.1916 20.6976 47.4239 21.0633 46.7112 21.5278C46.0322 21.9637 45.4532 22.5492 45.0149 23.2433C44.5854 23.9286 44.3706 24.7528 44.3706 25.716C44.3706 26.7919 44.5826 27.7093 45.0066 28.4681C45.4084 29.2047 46.0019 29.8081 46.7186 30.2087C47.4515 30.6151 48.2708 30.8229 49.101 30.8131C50.0663 30.8151 51.0243 30.6393 51.9308 30.2938C52.8388 29.9489 53.5593 29.4654 54.0922 28.8433C54.2974 29.24 54.5735 29.5921 54.9055 29.8809C55.2654 30.1883 55.6782 30.4217 56.1218 30.5685C56.6474 30.7433 57.1967 30.8282 57.7484 30.8199H59.2162L59.5755 27.3541H59.0482ZM53.5704 26.3687C53.1598 26.7787 52.6707 27.0937 52.1351 27.2932C51.6022 27.4914 51.1565 27.592 50.7981 27.592C50.0368 27.592 49.4822 27.4247 49.1344 27.0901C48.7865 26.7555 48.6123 26.243 48.6117 25.5525C48.6069 25.2321 48.6734 24.9148 48.806 24.6256C48.9385 24.3364 49.1336 24.083 49.3758 23.8854C49.9383 23.4169 50.5884 23.0757 51.2846 22.8836C52.0284 22.6615 52.7947 22.5316 53.5676 22.4967L53.5704 26.3687Z" fill="#0A0F28"/>
<path d="M59.7231 19.6141V22.8052H64.6438V19.6141H59.7231Z" fill="#0A0F28"/>
<path d="M73.0677 19.5338V16.6753C73.0677 15.9278 73.2423 15.3911 73.5904 15.0613C73.9386 14.7316 74.4056 14.5681 74.9933 14.5681C75.2384 14.5656 75.4835 14.5802 75.7267 14.6117C75.9096 14.6363 76.0899 14.6788 76.2652 14.7383L76.6236 11.3402C76.2285 11.2444 75.8287 11.1708 75.4259 11.1197C74.9465 11.061 74.4641 11.0326 73.9813 11.0346C72.3825 11.0346 71.1567 11.4763 70.3038 12.3595C69.4509 13.2427 69.0238 14.4321 69.0225 15.9278V19.6141H67.0181V22.8052H69.0216L69.0151 34.0014H73.0594L73.0677 22.9957H76.657V19.5338H73.0677Z" fill="#0A0F28"/>
<path d="M83.5461 27.2429C83.2626 27.1694 83.0698 26.9438 82.9677 26.566C82.8655 26.1882 82.8151 25.5448 82.8163 24.6358V4.99561H78.7665V26.3668C78.7573 27.1354 78.9074 27.897 79.2066 28.5996C79.4954 29.2677 79.9703 29.83 80.5695 30.2136C81.1841 30.6159 81.9752 30.8174 82.9426 30.818H84.4104L84.766 27.3541C84.3566 27.3658 83.9473 27.3285 83.5461 27.2429Z" fill="#0A0F28"/>
<path d="M100.964 17.5998C100.317 16.2645 99.3263 15.1433 98.1018 14.3622C96.8515 13.5551 95.34 13.1515 93.5673 13.1515C91.7946 13.1515 90.2844 13.5557 89.0366 14.3641C87.8107 15.1442 86.8179 16.2646 86.1696 17.5998C85.5066 18.9697 85.1685 20.4851 85.1836 22.0191C85.1692 23.5406 85.5075 25.0433 86.1696 26.3997C86.8195 27.7279 87.8124 28.8408 89.0366 29.6131C90.2869 30.4177 91.7984 30.8199 93.571 30.8199C95.3437 30.8199 96.8552 30.4177 98.1055 29.6131C99.3276 28.8409 100.319 27.7291 100.968 26.4026C101.631 25.0454 101.969 23.5417 101.955 22.0191C101.968 20.4847 101.629 18.9693 100.964 17.5998ZM96.7063 25.8649C95.9729 26.8564 94.9265 27.3522 93.5673 27.3522C92.2192 27.3522 91.1754 26.8564 90.4357 25.8649C89.6961 24.8734 89.3247 23.5908 89.3216 22.0171C89.3216 20.4196 89.693 19.1196 90.4357 18.1171C91.1785 17.1147 92.2223 16.6138 93.5673 16.6144C94.929 16.6144 95.9754 17.1153 96.7063 18.1171C97.4373 19.119 97.8047 20.419 97.8084 22.0171C97.8084 23.5927 97.441 24.876 96.7063 25.8669V25.8649Z" fill="#0A0F28"/>
<path d="M120.945 13.7858L118.107 25.6444L115.073 14.1253H111.68L108.616 25.6444L105.81 13.7858H101.863L106.626 30.7754H110.019L113.379 19.6982L116.739 30.7754H120.132L124.894 13.7858H120.945Z" fill="#0A0F28"/>
<path d="M32.4952 33.6784C31.8706 33.678 31.2636 33.4627 30.7687 33.0659C30.2737 32.6691 29.9185 32.113 29.7582 31.4842C29.7471 31.4398 28.5708 26.888 26.4493 22.4484C25.2665 19.9728 24.0354 18.033 22.7922 16.683C21.549 15.333 20.356 14.6465 19.2512 14.6465C18.1463 14.6465 16.9468 15.3311 15.6944 16.6772C14.4419 18.0233 13.2099 19.9564 12.0187 22.4242C9.88331 26.8483 8.69306 31.3856 8.68192 31.4311C8.48061 32.1802 8.00344 32.8163 7.35421 33.201C6.70498 33.5856 5.9362 33.6877 5.21507 33.4851C4.49395 33.2824 3.87881 32.7914 3.50345 32.1188C3.12809 31.4462 3.02287 30.6465 3.21067 29.8935C3.26359 29.6885 4.53926 24.8079 6.91604 19.8568C8.36532 16.8368 9.93716 14.3989 11.587 12.6099C13.9563 10.0425 16.5355 8.74182 19.2512 8.74182C21.9668 8.74182 24.5488 10.0502 26.9126 12.6293C28.5578 14.4231 30.1222 16.8696 31.5622 19.8993C33.9232 24.8659 35.183 29.7629 35.236 29.968C35.3477 30.4052 35.3614 30.8634 35.276 31.3071C35.1907 31.7508 35.0085 32.1681 34.7436 32.5267C34.4786 32.8854 34.1381 33.1758 33.7483 33.3755C33.3584 33.5752 32.9297 33.6788 32.4952 33.6784Z" fill="url(#paint0_linear_1_523)"/>
<defs>
<linearGradient id="paint0_linear_1_523" x1="3.10855" y1="21.2116" x2="35.3279" y2="21.2116" gradientUnits="userSpaceOnUse">
<stop stop-color="#0C93CD"/>
<stop offset="1" stop-color="#63BDE3"/>
</linearGradient>
</defs>
</svg>
