<svg width="20" height="25" viewBox="0 0 20 25" fill="none" xmlns="http://www.w3.org/2000/svg">
<path d="M2.77818 24.8088C2.28838 24.8088 1.86907 24.6409 1.52027 24.3052C1.17147 23.9695 0.99707 23.566 0.99707 23.0946V10.6956C0.99707 10.2242 1.17147 9.82063 1.52027 9.48494C1.86907 9.14925 2.28838 8.98141 2.77818 8.98141H4.85615V6.23876C4.85615 4.73697 5.40637 3.45683 6.50682 2.39834C7.60728 1.33985 8.93816 0.810608 10.4995 0.810608C12.0608 0.810608 13.3906 1.33985 14.489 2.39834C15.5874 3.45683 16.1365 4.73697 16.1365 6.23876V8.98141H18.2145C18.7043 8.98141 19.1236 9.14925 19.4724 9.48494C19.8212 9.82063 19.9956 10.2242 19.9956 10.6956V23.0946C19.9956 23.566 19.8212 23.9695 19.4724 24.3052C19.1236 24.6409 18.7043 24.8088 18.2145 24.8088H2.77818ZM2.77818 23.0946H18.2145V10.6956H2.77818V23.0946ZM10.5013 19.0949C11.1313 19.0949 11.6689 18.8851 12.1142 18.4655C12.5595 18.0459 12.7821 17.5415 12.7821 16.9522C12.7821 16.3808 12.5578 15.8618 12.1092 15.3952C11.6606 14.9286 11.1213 14.6953 10.4914 14.6953C9.86139 14.6953 9.32377 14.9286 8.8785 15.3952C8.43322 15.8618 8.21058 16.3856 8.21058 16.9665C8.21058 17.5474 8.43488 18.0474 8.88348 18.4664C9.33209 18.8854 9.87137 19.0949 10.5013 19.0949ZM6.63726 8.98141H14.3554V6.23876C14.3554 5.20709 13.9806 4.33018 13.2309 3.60802C12.4812 2.88585 11.5708 2.52476 10.4998 2.52476C9.42884 2.52476 8.51733 2.88585 7.7653 3.60802C7.01327 4.33018 6.63726 5.20709 6.63726 6.23876V8.98141Z" fill="#8D8D8D"/>
</svg>
