<svg width="24" height="24" viewBox="0 0 24 24" fill="none" xmlns="http://www.w3.org/2000/svg">
<path d="M3.58708 13.779C5.36708 15.548 8.47008 17.999 12.0001 17.999C15.5301 17.999 18.6341 15.548 20.4131 13.779C20.8831 13.312 21.1181 13.079 21.2671 12.62C21.3741 12.293 21.3741 11.707 21.2671 11.38C21.1171 10.922 20.8821 10.688 20.4131 10.221C18.6331 8.452 15.5311 6 12.0001 6C8.47008 6 5.36608 8.452 3.58708 10.221C3.11708 10.688 2.88208 10.921 2.73308 11.38C2.62608 11.707 2.62608 12.293 2.73308 12.62C2.88308 13.078 3.11708 13.312 3.58708 13.779Z" stroke="black" stroke-width="2" stroke-linecap="round" stroke-linejoin="round"/>
<path d="M10 12C10 12.5304 10.2107 13.0391 10.5858 13.4142C10.9609 13.7893 11.4696 14 12 14C12.5304 14 13.0391 13.7893 13.4142 13.4142C13.7893 13.0391 14 12.5304 14 12C14 11.4696 13.7893 10.9609 13.4142 10.5858C13.0391 10.2107 12.5304 10 12 10C11.4696 10 10.9609 10.2107 10.5858 10.5858C10.2107 10.9609 10 11.4696 10 12Z" stroke="black" stroke-width="2" stroke-linecap="round" stroke-linejoin="round"/>
</svg>
